<svg xmlns="http://www.w3.org/2000/svg" viewBox="0 0 1024 1024"><rect width="1024" height="1024" fill="#090d12"/><g stroke="#122328" stroke-width="3" opacity=".8"><path d="M-200 1024 220 0M-120 1024 300 0M-40 1024 380 0M40 1024 460 0M120 1024 540 0M200 1024 620 0M280 1024 700 0M360 1024 780 0M440 1024 860 0M520 1024 940 0M600 1024 1020 0"/></g><path d="M222 692h612" stroke="#6aff5e" stroke-width="76" stroke-linecap="round"/><path d="m790 565 130 127-130 123z" fill="#6aff5e"/><path d="M250 405h490v260H250z" rx="42" fill="#2d3a41" stroke="#f4f7fb" stroke-width="12"/><path d="m250 405 65-75h490l-65 75z" fill="#3e5057" stroke="#f4f7fb" stroke-width="12"/><path d="M330 425l35 215M430 425l35 215M530 425l35 215M630 425l35 215" stroke="#6b8188" stroke-width="10"/><circle cx="370" cy="685" r="40" fill="#090d12" stroke="#6aff5e" stroke-width="12"/><circle cx="700" cy="685" r="40" fill="#090d12" stroke="#6aff5e" stroke-width="12"/><path d="M505 260 440 505h115l-80 240" fill="none" stroke="#6aff5e" stroke-width="42" stroke-linejoin="round" stroke-linecap="round"/></svg>